<svg width="375" height="673" viewBox="0 0 375 673" fill="none" xmlns="http://www.w3.org/2000/svg">
<g id="Facetime">
<rect width="375" height="673" fill="url(#paint0_radial_102_1406)"/>
<g id="iPhone Status bar">
<g id="battery">
<path id="outline" opacity="0.44" fill-rule="evenodd" clip-rule="evenodd" d="M368 15L368.46 15.3066C369.11 15.7398 369.5 16.4691 369.5 17.25C369.5 18.0309 369.11 18.7602 368.46 19.1934L368 19.5V15ZM345 11.5H365C366.105 11.5 367 12.3954 367 13.5V21C367 22.1046 366.105 23 365 23H345C343.895 23 343 22.1046 343 21V13.5C343 12.3954 343.895 11.5 345 11.5ZM345 12.5C344.448 12.5 344 12.9477 344 13.5V21C344 21.5523 344.448 22 345 22H365C365.552 22 366 21.5523 366 21V13.5C366 12.9477 365.552 12.5 365 12.5H345Z" fill="white"/>
<path id="isnide" fill-rule="evenodd" clip-rule="evenodd" d="M346 13.5H361V21H346C345.448 21 345 20.5523 345 20V14.5C345 13.9477 345.448 13.5 346 13.5Z" fill="white"/>
</g>
<g id="Time">
<path d="M174.26 21H175.771V12.5449H174.266L172.057 14.0918V15.5449L174.16 14.0684H174.26V21Z" fill="white"/>
<path d="M181.127 21.2051C183.277 21.2051 184.555 19.5234 184.555 16.6758C184.555 15.6035 184.35 14.7012 183.957 14.0039C183.389 12.9199 182.41 12.334 181.174 12.334C179.334 12.334 178.033 13.5703 178.033 15.3047C178.033 16.9336 179.205 18.1172 180.816 18.1172C181.807 18.1172 182.609 17.6543 183.008 16.8516H183.025C183.025 16.8516 183.049 16.8516 183.055 16.8516C183.066 16.8516 183.107 16.8516 183.107 16.8516C183.107 18.7852 182.375 19.9395 181.139 19.9395C180.412 19.9395 179.85 19.541 179.656 18.9023H178.15C178.402 20.291 179.58 21.2051 181.127 21.2051ZM181.18 16.916C180.207 16.916 179.516 16.2246 179.516 15.2578C179.516 14.3145 180.242 13.5938 181.186 13.5938C182.129 13.5938 182.855 14.3262 182.855 15.2812C182.855 16.2246 182.146 16.916 181.18 16.916Z" fill="white"/>
<path d="M187.209 20.1035C187.766 20.1035 188.146 19.7051 188.146 19.1777C188.146 18.6445 187.766 18.252 187.209 18.252C186.658 18.252 186.271 18.6445 186.271 19.1777C186.271 19.7051 186.658 20.1035 187.209 20.1035ZM187.209 15.709C187.766 15.709 188.146 15.3164 188.146 14.7891C188.146 14.2559 187.766 13.8633 187.209 13.8633C186.658 13.8633 186.271 14.2559 186.271 14.7891C186.271 15.3164 186.658 15.709 187.209 15.709Z" fill="white"/>
<path d="M193.115 21.2109C195.137 21.2109 196.338 19.5703 196.338 16.7754C196.338 13.9688 195.119 12.334 193.115 12.334C191.105 12.334 189.887 13.9688 189.887 16.7637C189.887 19.5703 191.088 21.2109 193.115 21.2109ZM193.115 19.957C192.043 19.957 191.416 18.8438 191.416 16.7637C191.416 14.7012 192.055 13.5938 193.115 13.5938C194.176 13.5938 194.809 14.6953 194.809 16.7637C194.809 18.8438 194.188 19.957 193.115 19.957Z" fill="white"/>
<path d="M197.908 15.0176V15.041H199.326V15.0176C199.326 14.1562 199.924 13.5762 200.809 13.5762C201.641 13.5762 202.25 14.1152 202.25 14.8594C202.25 15.457 201.963 15.8965 200.809 17.0684L197.99 19.9512V21H203.861V19.7168H200.064V19.6172L201.834 17.8418C203.27 16.4238 203.732 15.6738 203.732 14.7656C203.732 13.3535 202.525 12.334 200.855 12.334C199.121 12.334 197.908 13.4355 197.908 15.0176Z" fill="white"/>
</g>
<g id="Service">
<path id="reception" fill-rule="evenodd" clip-rule="evenodd" d="M21.5 12C20.9477 12 20.5 12.4477 20.5 13V21C20.5 21.5523 20.9477 22 21.5 22H22.5C23.0523 22 23.5 21.5523 23.5 21V13C23.5 12.4477 23.0523 12 22.5 12H21.5ZM16 15C16 14.4477 16.4477 14 17 14H18C18.5523 14 19 14.4477 19 15V21C19 21.5523 18.5523 22 18 22H17C16.4477 22 16 21.5523 16 21V15ZM12.5 16C11.9477 16 11.5 16.4477 11.5 17V21C11.5 21.5523 11.9477 22 12.5 22H13.5C14.0523 22 14.5 21.5523 14.5 21V17C14.5 16.4477 14.0523 16 13.5 16H12.5ZM8 22C7.44772 22 7 21.5523 7 21V18.5C7 17.9477 7.44772 17.5 8 17.5H9C9.55228 17.5 10 17.9477 10 18.5V21C10 21.5523 9.55228 22 9 22H8Z" fill="white"/>
<path id="provider" d="M28.1621 18.7441C28.2559 20.2441 29.5156 21.2051 31.3906 21.2051C33.3945 21.2051 34.6484 20.1973 34.6484 18.5977C34.6484 17.332 33.9336 16.6348 32.1992 16.2188L31.2676 15.9902C30.166 15.7207 29.7207 15.3691 29.7207 14.7539C29.7207 13.9629 30.4121 13.4531 31.4492 13.4531C32.4336 13.4531 33.1133 13.9453 33.2363 14.748H34.5137C34.4375 13.3359 33.1836 12.3398 31.4668 12.3398C29.6211 12.3398 28.3906 13.3359 28.3906 14.8242C28.3906 16.0547 29.0879 16.7812 30.6172 17.1504L31.707 17.4141C32.8262 17.6836 33.3184 18.0938 33.3184 18.7559C33.3184 19.5293 32.5449 20.0859 31.4902 20.0859C30.3594 20.0859 29.5742 19.5645 29.4629 18.7441H28.1621ZM40.2941 19.2949C40.0597 19.8105 39.5382 20.0918 38.7765 20.0918C37.7687 20.0918 37.1183 19.3652 37.0773 18.2109V18.1523H41.5831V17.7188C41.5831 15.7266 40.5109 14.5137 38.7355 14.5137C36.9366 14.5137 35.7941 15.8086 35.7941 17.8301C35.7941 19.8633 36.9132 21.123 38.7413 21.123C40.2003 21.123 41.2316 20.4199 41.507 19.2949H40.2941ZM38.7296 15.5391C39.6613 15.5391 40.2706 16.2129 40.2999 17.2441H37.0773C37.1476 16.2188 37.798 15.5391 38.7296 15.5391ZM42.9748 21H44.2346V17.1973C44.2346 16.3008 44.9084 15.6855 45.8635 15.6855C46.0862 15.6855 46.4612 15.7266 46.5666 15.7559V14.5723C46.4319 14.543 46.1916 14.5254 46.0041 14.5254C45.1721 14.5254 44.4631 14.9766 44.2815 15.6035H44.1877V14.6367H42.9748V21ZM53.097 14.6367H51.7611L50.1791 19.7109H50.0795L48.4916 14.6367H47.1439L49.4466 21H50.8002L53.097 14.6367ZM54.9048 13.5C55.3442 13.5 55.7016 13.1426 55.7016 12.709C55.7016 12.2695 55.3442 11.9121 54.9048 11.9121C54.4653 11.9121 54.1079 12.2695 54.1079 12.709C54.1079 13.1426 54.4653 13.5 54.9048 13.5ZM54.2778 21H55.5317V14.6367H54.2778V21ZM62.6656 16.6816C62.5016 15.4453 61.5348 14.5137 59.9352 14.5137C58.0777 14.5137 56.9469 15.7734 56.9469 17.7949C56.9469 19.8574 58.0836 21.123 59.941 21.123C61.5172 21.123 62.5016 20.2383 62.6656 18.9844H61.441C61.277 19.6758 60.732 20.0508 59.9352 20.0508C58.8863 20.0508 58.2359 19.2012 58.2359 17.7949C58.2359 16.418 58.8805 15.5859 59.9352 15.5859C60.7789 15.5859 61.2945 16.0605 61.441 16.6816H62.6656ZM68.1706 19.2949C67.9362 19.8105 67.4148 20.0918 66.653 20.0918C65.6452 20.0918 64.9948 19.3652 64.9538 18.2109V18.1523H69.4597V17.7188C69.4597 15.7266 68.3874 14.5137 66.612 14.5137C64.8132 14.5137 63.6706 15.8086 63.6706 17.8301C63.6706 19.8633 64.7898 21.123 66.6179 21.123C68.0769 21.123 69.1081 20.4199 69.3835 19.2949H68.1706ZM66.6062 15.5391C67.5378 15.5391 68.1472 16.2129 68.1765 17.2441H64.9538C65.0241 16.2188 65.6745 15.5391 66.6062 15.5391Z" fill="white"/>
<path id="wifi" d="M82.8081 13.4922C85.2189 13.4923 87.5375 14.424 89.2846 16.0948C89.4162 16.2238 89.6265 16.2222 89.7561 16.0912L91.0137 14.8145C91.0793 14.748 91.1159 14.658 91.1154 14.5644C91.1148 14.4707 91.0772 14.3811 91.0108 14.3155C86.4251 9.89485 79.1905 9.89485 74.6047 14.3155C74.5383 14.3811 74.5006 14.4706 74.5 14.5643C74.4994 14.6579 74.5359 14.748 74.6015 14.8145L75.8595 16.0912C75.989 16.2224 76.1994 16.224 76.3309 16.0948C78.0783 14.4239 80.3972 13.4922 82.8081 13.4922ZM82.8081 17.6459C84.1327 17.6458 85.41 18.141 86.3918 19.0353C86.5246 19.1622 86.7338 19.1595 86.8632 19.0291L88.1195 17.7524C88.1856 17.6854 88.2223 17.5946 88.2214 17.5002C88.2204 17.4058 88.1819 17.3157 88.1144 17.2501C85.1245 14.4526 80.4943 14.4526 77.5045 17.2501C77.4369 17.3157 77.3984 17.4058 77.3975 17.5003C77.3966 17.5947 77.4334 17.6855 77.4997 17.7524L78.7556 19.0291C78.885 19.1595 79.0942 19.1622 79.227 19.0353C80.2082 18.1416 81.4845 17.6464 82.8081 17.6459ZM85.2223 20.6929C85.2895 20.6266 85.3265 20.5353 85.3245 20.4406C85.3226 20.3459 85.2819 20.2563 85.2121 20.1928C83.8244 19.0121 81.7919 19.0121 80.4042 20.1928C80.3343 20.2562 80.2936 20.3459 80.2916 20.4405C80.2896 20.5352 80.3265 20.6265 80.3937 20.6929L82.567 22.8987C82.6307 22.9635 82.7175 23 82.8081 23C82.8988 23 82.9856 22.9635 83.0493 22.8987L85.2223 20.6929Z" fill="white"/>
</g>
</g>
<path id="010-1234-5678" d="M45.0616 128.48C41.9416 128.48 39.5682 127.213 37.9416 124.68C36.3149 122.12 35.5016 118.547 35.5016 113.96C35.5016 109.347 36.3282 105.787 37.9816 103.28C39.6616 100.773 42.0482 99.52 45.1416 99.52C48.2616 99.52 50.6349 100.787 52.2616 103.32C53.8882 105.853 54.7016 109.427 54.7016 114.04C54.7016 118.653 53.8616 122.213 52.1816 124.72C50.5282 127.227 48.1549 128.48 45.0616 128.48ZM45.1016 125.2C46.3016 125.2 47.3282 124.853 48.1816 124.16C49.0616 123.44 49.7282 122.267 50.1816 120.64C50.6616 119.013 50.9016 116.827 50.9016 114.08C50.9016 110.4 50.3816 107.6 49.3416 105.68C48.3282 103.76 46.9149 102.8 45.1016 102.8C43.9016 102.8 42.8616 103.16 41.9816 103.88C41.1282 104.573 40.4616 105.733 39.9816 107.36C39.5282 108.96 39.3016 111.147 39.3016 113.92C39.3016 117.6 39.8082 120.4 40.8216 122.32C41.8616 124.24 43.2882 125.2 45.1016 125.2ZM62.8459 128V124.8H68.5659V104.6L63.2059 108.64L61.2459 105.96L69.5259 100H72.1659V124.8H76.9259V128H62.8459ZM93.0303 128.48C89.9103 128.48 87.537 127.213 85.9103 124.68C84.2836 122.12 83.4703 118.547 83.4703 113.96C83.4703 109.347 84.297 105.787 85.9503 103.28C87.6303 100.773 90.017 99.52 93.1103 99.52C96.2303 99.52 98.6036 100.787 100.23 103.32C101.857 105.853 102.67 109.427 102.67 114.04C102.67 118.653 101.83 122.213 100.15 124.72C98.497 127.227 96.1236 128.48 93.0303 128.48ZM93.0703 125.2C94.2703 125.2 95.297 124.853 96.1503 124.16C97.0303 123.44 97.697 122.267 98.1503 120.64C98.6303 119.013 98.8703 116.827 98.8703 114.08C98.8703 110.4 98.3503 107.6 97.3103 105.68C96.297 103.76 94.8836 102.8 93.0703 102.8C91.8703 102.8 90.8303 103.16 89.9503 103.88C89.097 104.573 88.4303 105.733 87.9503 107.36C87.497 108.96 87.2703 111.147 87.2703 113.92C87.2703 117.6 87.777 120.4 88.7903 122.32C89.8303 124.24 91.257 125.2 93.0703 125.2ZM110.255 115.92V112.64H123.855V115.92H110.255ZM134.799 128V124.8H140.519V104.6L135.159 108.64L133.199 105.96L141.479 100H144.119V124.8H148.879V128H134.799ZM156.543 128C156.463 127.52 156.423 127.027 156.423 126.52C156.423 124.787 156.717 123.24 157.303 121.88C157.917 120.493 158.703 119.24 159.663 118.12C160.623 116.973 161.637 115.92 162.703 114.96C163.797 113.973 164.81 113.04 165.743 112.16C166.703 111.253 167.49 110.347 168.103 109.44C168.717 108.533 169.023 107.587 169.023 106.6C169.023 105.48 168.61 104.56 167.783 103.84C166.957 103.093 165.89 102.72 164.583 102.72C163.463 102.72 162.437 102.947 161.503 103.4C160.597 103.827 159.743 104.413 158.943 105.16L156.943 102.72C158.01 101.76 159.183 100.987 160.463 100.4C161.77 99.8133 163.277 99.52 164.983 99.52C166.557 99.52 167.93 99.8267 169.103 100.44C170.277 101.027 171.183 101.84 171.823 102.88C172.49 103.92 172.823 105.08 172.823 106.36C172.823 107.64 172.543 108.827 171.983 109.92C171.423 111.013 170.703 112.04 169.823 113C168.943 113.96 167.997 114.893 166.983 115.8C165.97 116.68 164.997 117.587 164.063 118.52C163.13 119.453 162.33 120.427 161.663 121.44C161.023 122.453 160.623 123.547 160.463 124.72H172.783V128H156.543ZM187.368 128.48C185.634 128.48 184.128 128.253 182.848 127.8C181.568 127.32 180.474 126.747 179.568 126.08L181.208 123.08C181.954 123.64 182.821 124.133 183.808 124.56C184.794 124.987 185.994 125.2 187.408 125.2C189.168 125.2 190.554 124.733 191.568 123.8C192.608 122.867 193.128 121.707 193.128 120.32C193.128 119.333 192.861 118.44 192.328 117.64C191.794 116.813 190.968 116.147 189.848 115.64C188.754 115.133 187.328 114.88 185.568 114.88H183.328V111.96H185.408C186.981 111.96 188.274 111.72 189.288 111.24C190.328 110.76 191.101 110.133 191.608 109.36C192.114 108.587 192.368 107.773 192.368 106.92C192.368 105.667 191.888 104.653 190.928 103.88C189.994 103.107 188.834 102.72 187.448 102.72C186.194 102.72 185.074 102.933 184.088 103.36C183.128 103.76 182.341 104.213 181.728 104.72L180.248 101.88C181.048 101.347 182.074 100.827 183.328 100.32C184.581 99.7867 186.048 99.52 187.728 99.52C189.488 99.52 190.981 99.84 192.208 100.48C193.434 101.12 194.368 101.973 195.008 103.04C195.674 104.08 196.008 105.213 196.008 106.44C196.008 108.013 195.608 109.333 194.808 110.4C194.034 111.467 192.928 112.347 191.488 113.04C193.168 113.68 194.474 114.627 195.408 115.88C196.368 117.107 196.848 118.547 196.848 120.2C196.848 121.587 196.501 122.92 195.808 124.2C195.141 125.453 194.101 126.48 192.688 127.28C191.301 128.08 189.528 128.48 187.368 128.48ZM215.512 128V122.04H203.552V119.16L211.912 99.72L215.032 101.04L207.472 118.76H215.512V110.8H219.112V118.76H222.432V122.04H219.112V128H215.512ZM230.177 115.92V112.64H243.777V115.92H230.177ZM259.761 128.48C258.134 128.48 256.734 128.307 255.561 127.96C254.388 127.587 253.321 127.067 252.361 126.4L254.241 123.32C254.988 123.853 255.814 124.307 256.721 124.68C257.628 125.027 258.654 125.2 259.801 125.2C261.588 125.2 263.028 124.693 264.121 123.68C265.214 122.64 265.761 121.32 265.761 119.72C265.761 118.067 265.188 116.72 264.041 115.68C262.921 114.613 261.308 114.08 259.201 114.08H254.241V100H268.081V103.24H257.641V110.84H259.641C261.721 110.84 263.494 111.2 264.961 111.92C266.454 112.64 267.588 113.64 268.361 114.92C269.161 116.2 269.561 117.667 269.561 119.32C269.561 121.107 269.148 122.693 268.321 124.08C267.521 125.44 266.388 126.52 264.921 127.32C263.454 128.093 261.734 128.48 259.761 128.48ZM285.105 128.48C283.425 128.48 281.865 128.067 280.425 127.24C279.012 126.387 277.879 125.08 277.025 123.32C276.172 121.56 275.745 119.333 275.745 116.64C275.745 114.373 276.039 112.24 276.625 110.24C277.239 108.213 278.145 106.427 279.345 104.88C280.572 103.333 282.079 102.12 283.865 101.24C285.652 100.36 287.732 99.92 290.105 99.92C290.345 99.92 290.599 99.9333 290.865 99.96C291.159 99.96 291.412 99.9733 291.625 100V103.28C291.412 103.253 291.172 103.24 290.905 103.24C290.639 103.213 290.385 103.2 290.145 103.2C287.239 103.2 284.839 104.093 282.945 105.88C281.079 107.64 279.932 110.067 279.505 113.16C280.252 112.44 281.212 111.787 282.385 111.2C283.559 110.587 284.892 110.28 286.385 110.28C287.879 110.28 289.212 110.627 290.385 111.32C291.559 112.013 292.479 112.987 293.145 114.24C293.839 115.467 294.185 116.933 294.185 118.64C294.185 120.587 293.785 122.307 292.985 123.8C292.212 125.267 291.145 126.413 289.785 127.24C288.425 128.067 286.865 128.48 285.105 128.48ZM285.265 125.2C286.865 125.2 288.145 124.613 289.105 123.44C290.092 122.267 290.585 120.813 290.585 119.08C290.585 117.347 290.119 115.947 289.185 114.88C288.252 113.813 287.012 113.28 285.465 113.28C284.319 113.28 283.225 113.56 282.185 114.12C281.145 114.68 280.225 115.427 279.425 116.36V117.24C279.479 119.747 280.052 121.707 281.145 123.12C282.265 124.507 283.639 125.2 285.265 125.2ZM304.73 128C304.73 124.933 304.93 122.213 305.33 119.84C305.756 117.44 306.356 115.28 307.13 113.36C307.93 111.44 308.916 109.667 310.09 108.04C311.263 106.413 312.61 104.827 314.13 103.28H300.65V100H318.41V102.88C316.57 104.667 315.036 106.413 313.81 108.12C312.583 109.8 311.596 111.587 310.85 113.48C310.103 115.347 309.57 117.467 309.25 119.84C308.93 122.187 308.77 124.907 308.77 128H304.73ZM333.114 128.48C331.087 128.48 329.327 128.133 327.834 127.44C326.341 126.747 325.181 125.813 324.354 124.64C323.554 123.44 323.154 122.12 323.154 120.68C323.154 118.947 323.621 117.44 324.554 116.16C325.514 114.88 327.007 113.8 329.034 112.92C327.621 112.147 326.527 111.253 325.754 110.24C325.007 109.2 324.634 107.92 324.634 106.4C324.634 105.04 324.994 103.853 325.714 102.84C326.434 101.8 327.407 100.987 328.634 100.4C329.887 99.8133 331.274 99.52 332.794 99.52C334.447 99.52 335.901 99.8267 337.154 100.44C338.407 101.027 339.381 101.84 340.074 102.88C340.794 103.92 341.154 105.08 341.154 106.36C341.154 107.987 340.741 109.307 339.914 110.32C339.087 111.333 337.981 112.187 336.594 112.88C338.567 113.707 340.074 114.747 341.114 116C342.154 117.227 342.674 118.707 342.674 120.44C342.674 122.04 342.261 123.453 341.434 124.68C340.607 125.88 339.474 126.813 338.034 127.48C336.594 128.147 334.954 128.48 333.114 128.48ZM333.314 111.56C334.487 111.16 335.501 110.547 336.354 109.72C337.234 108.893 337.674 107.893 337.674 106.72C337.674 105.493 337.207 104.48 336.274 103.68C335.341 102.88 334.181 102.48 332.794 102.48C331.434 102.48 330.314 102.84 329.434 103.56C328.554 104.253 328.114 105.173 328.114 106.32C328.114 107.467 328.581 108.507 329.514 109.44C330.474 110.373 331.741 111.08 333.314 111.56ZM333.154 125.28C334.861 125.28 336.261 124.84 337.354 123.96C338.447 123.053 338.994 121.907 338.994 120.52C338.994 119.24 338.421 118.093 337.274 117.08C336.154 116.067 334.594 115.2 332.594 114.48C331.581 114.72 330.634 115.093 329.754 115.6C328.874 116.107 328.167 116.733 327.634 117.48C327.101 118.227 326.834 119.08 326.834 120.04C326.834 121.027 327.101 121.92 327.634 122.72C328.194 123.52 328.954 124.147 329.914 124.6C330.874 125.053 331.954 125.28 333.154 125.28Z" fill="white"/>
<path id="&#236;&#160;&#132;&#237;&#153;&#148; &#236;&#136;&#152;&#236;&#139;&#160;&#236;&#164;&#145;" d="M158.769 173.768H162.417V174.856H158.769V173.768ZM161.665 169.8H162.993V180.392H161.665V169.8ZM153.761 182.84H163.393V183.928H153.761V182.84ZM153.761 179.464H155.089V183.4H153.761V179.464ZM154.785 171.592H155.873V172.76C155.873 175.384 154.241 177.656 151.825 178.552L151.137 177.496C153.297 176.728 154.785 174.808 154.785 172.76V171.592ZM155.041 171.592H156.113V172.744C156.113 174.616 157.521 176.44 159.617 177.176L158.945 178.216C156.593 177.368 155.041 175.192 155.041 172.744V171.592ZM151.553 170.968H159.281V172.04H151.553V170.968ZM169.567 178.408H170.895V180.76H169.567V178.408ZM175.647 169.784H176.975V184.248H175.647V169.784ZM176.543 175.928H179.215V177.048H176.543V175.928ZM165.839 181.496L165.647 180.392C168.239 180.392 171.775 180.36 174.767 179.928L174.879 180.92C171.759 181.48 168.367 181.496 165.839 181.496ZM165.887 171.528H174.543V172.6H165.887V171.528ZM170.223 173.448C172.239 173.448 173.631 174.504 173.631 176.12C173.631 177.752 172.239 178.792 170.223 178.792C168.207 178.792 166.831 177.752 166.831 176.12C166.831 174.504 168.207 173.448 170.223 173.448ZM170.223 174.472C168.927 174.472 168.079 175.128 168.079 176.12C168.079 177.112 168.927 177.768 170.223 177.768C171.519 177.768 172.383 177.112 172.383 176.12C172.383 175.128 171.519 174.472 170.223 174.472ZM169.567 169.8H170.895V172.248H169.567V169.8ZM191.179 170.296H192.347V171.096C192.347 173.864 189.531 175.848 186.523 176.36L185.995 175.288C188.635 174.888 191.179 173.16 191.179 171.096V170.296ZM191.419 170.296H192.571V171.096C192.571 173.112 195.147 174.888 197.755 175.288L197.227 176.36C194.251 175.848 191.419 173.832 191.419 171.096V170.296ZM191.179 178.744H192.491V184.248H191.179V178.744ZM185.339 177.928H198.411V179.032H185.339V177.928ZM210.57 169.8H211.914V180.392H210.57V169.8ZM202.618 182.84H212.346V183.928H202.618V182.84ZM202.618 179.416H203.93V183.352H202.618V179.416ZM203.818 170.584H204.922V172.056C204.922 174.872 203.322 177.336 200.89 178.328L200.202 177.256C202.378 176.408 203.818 174.296 203.818 172.056V170.584ZM204.058 170.584H205.146V172.056C205.146 174.232 206.602 176.2 208.762 176.984L208.058 178.056C205.658 177.128 204.058 174.808 204.058 172.056V170.584ZM220.633 177.016H221.961V179.544H220.633V177.016ZM214.761 176.552H227.833V177.624H214.761V176.552ZM221.289 179.144C224.393 179.144 226.249 180.056 226.249 181.688C226.249 183.304 224.393 184.216 221.289 184.216C218.185 184.216 216.329 183.304 216.329 181.688C216.329 180.056 218.185 179.144 221.289 179.144ZM221.289 180.168C219.033 180.168 217.673 180.712 217.673 181.688C217.673 182.648 219.033 183.192 221.289 183.192C223.561 183.192 224.905 182.648 224.905 181.688C224.905 180.712 223.561 180.168 221.289 180.168ZM220.441 170.968H221.625V171.4C221.625 173.736 218.969 175.304 215.977 175.672L215.497 174.616C218.089 174.344 220.441 173.048 220.441 171.4V170.968ZM221.001 170.968H222.169V171.4C222.169 173.048 224.521 174.344 227.113 174.616L226.633 175.672C223.641 175.304 221.001 173.736 221.001 171.4V170.968ZM215.961 170.44H226.665V171.512H215.961V170.44Z" fill="white"/>
<g id="Message">
<path id="&#244;&#128;&#140;&#171;" d="M281.023 399.992C281.336 399.992 281.555 399.836 281.922 399.492L284.75 396.914L290.023 396.922C292.352 396.93 293.602 395.633 293.602 393.344V387.359C293.602 385.07 292.352 383.781 290.023 383.781H279.961C277.641 383.781 276.383 385.062 276.383 387.359V393.344C276.383 395.641 277.641 396.922 279.961 396.914H280.328V399.188C280.328 399.672 280.586 399.992 281.023 399.992Z" fill="white"/>
<path id="Message_2" d="M269.481 420V411.545H268.256L265.362 418.6H265.268L262.374 411.545H261.149V420H262.133V413.543H262.204L264.87 420H265.76L268.426 413.543H268.497V420H269.481ZM275.572 418.365C275.308 418.922 274.758 419.221 273.943 419.221C272.871 419.221 272.174 418.43 272.121 417.182V417.135H276.662V416.748C276.662 414.785 275.625 413.572 273.92 413.572C272.185 413.572 271.072 414.861 271.072 416.848C271.072 418.846 272.168 420.111 273.92 420.111C275.303 420.111 276.287 419.443 276.58 418.365H275.572ZM273.908 414.463C274.91 414.463 275.578 415.201 275.601 416.32H272.121C272.197 415.201 272.9 414.463 273.908 414.463ZM277.977 415.412C277.977 416.326 278.516 416.836 279.7 417.123L280.784 417.387C281.458 417.551 281.786 417.844 281.786 418.277C281.786 418.857 281.177 419.262 280.327 419.262C279.518 419.262 279.015 418.922 278.845 418.389H277.808C277.919 419.438 278.886 420.111 280.292 420.111C281.727 420.111 282.823 419.332 282.823 418.201C282.823 417.293 282.249 416.777 281.059 416.49L280.087 416.256C279.343 416.074 278.991 415.805 278.991 415.371C278.991 414.809 279.577 414.428 280.327 414.428C281.089 414.428 281.581 414.762 281.716 415.266H282.712C282.577 414.229 281.657 413.572 280.333 413.572C278.991 413.572 277.977 414.363 277.977 415.412ZM284.021 415.412C284.021 416.326 284.561 416.836 285.744 417.123L286.828 417.387C287.502 417.551 287.83 417.844 287.83 418.277C287.83 418.857 287.221 419.262 286.371 419.262C285.562 419.262 285.059 418.922 284.889 418.389H283.852C283.963 419.438 284.93 420.111 286.336 420.111C287.771 420.111 288.867 419.332 288.867 418.201C288.867 417.293 288.293 416.777 287.104 416.49L286.131 416.256C285.387 416.074 285.035 415.805 285.035 415.371C285.035 414.809 285.621 414.428 286.371 414.428C287.133 414.428 287.625 414.762 287.76 415.266H288.756C288.621 414.229 287.701 413.572 286.377 413.572C285.035 413.572 284.021 414.363 284.021 415.412ZM292.087 420.111C292.931 420.111 293.622 419.742 294.032 419.068H294.126V420H295.087V415.676C295.087 414.363 294.226 413.572 292.685 413.572C291.337 413.572 290.341 414.24 290.206 415.254H291.226C291.366 414.756 291.894 414.469 292.65 414.469C293.593 414.469 294.079 414.896 294.079 415.676V416.25L292.257 416.361C290.786 416.449 289.954 417.1 289.954 418.23C289.954 419.385 290.862 420.111 292.087 420.111ZM292.275 419.227C291.542 419.227 290.997 418.852 290.997 418.207C290.997 417.574 291.419 417.24 292.38 417.176L294.079 417.064V417.645C294.079 418.547 293.312 419.227 292.275 419.227ZM299.432 422.426C301.155 422.426 302.244 421.523 302.244 420.111V413.684H301.283V414.686H301.19C300.826 414.006 300.047 413.572 299.162 413.572C297.539 413.572 296.514 414.855 296.514 416.748C296.514 418.641 297.528 419.906 299.162 419.906C300.03 419.906 300.744 419.514 301.143 418.816H301.237V420.059C301.237 420.99 300.563 421.547 299.432 421.547C298.524 421.547 297.961 421.213 297.85 420.697H296.783C296.936 421.74 297.908 422.426 299.432 422.426ZM299.385 419.016C298.213 419.016 297.557 418.125 297.557 416.748C297.557 415.371 298.213 414.48 299.385 414.48C300.551 414.48 301.26 415.371 301.26 416.748C301.26 418.125 300.557 419.016 299.385 419.016ZM308.206 418.365C307.943 418.922 307.392 419.221 306.577 419.221C305.505 419.221 304.808 418.43 304.755 417.182V417.135H309.296V416.748C309.296 414.785 308.259 413.572 306.554 413.572C304.82 413.572 303.706 414.861 303.706 416.848C303.706 418.846 304.802 420.111 306.554 420.111C307.937 420.111 308.921 419.443 309.214 418.365H308.206ZM306.542 414.463C307.544 414.463 308.212 415.201 308.236 416.32H304.755C304.831 415.201 305.535 414.463 306.542 414.463Z" fill="white"/>
</g>
<g id="Remind Me">
<path id="&#244;&#128;&#144;&#174;" d="M85.3984 385.57L88.1641 383.492C88.3047 383.383 88.3828 383.258 88.3828 383.125C88.3828 382.938 88.3047 382.781 88.1172 382.641C87.7891 382.383 87.2891 382.242 86.7812 382.242C85.4922 382.242 84.4609 383.258 84.4609 384.531C84.4609 384.859 84.5234 385.18 84.6016 385.359C84.7031 385.555 84.8672 385.688 85.0703 385.688C85.1953 385.688 85.2812 385.672 85.3984 385.57ZM98.3359 385.57C98.4531 385.672 98.5391 385.688 98.6641 385.688C98.8672 385.688 99.0312 385.555 99.125 385.359C99.2031 385.18 99.2734 384.859 99.2734 384.531C99.2734 383.258 98.2422 382.242 96.9453 382.242C96.4375 382.242 95.9453 382.383 95.6094 382.641C95.4297 382.781 95.3516 382.938 95.3516 383.125C95.3516 383.258 95.4297 383.383 95.5625 383.492L98.3359 385.57ZM85.2109 399.094C85.4531 399.344 85.875 399.344 86.1172 399.102L87.3828 397.836C88.6875 398.773 90.2891 399.328 92 399.328C93.6797 399.328 95.25 398.797 96.5469 397.883L97.7578 399.102C98 399.336 98.4141 399.336 98.6641 399.102C98.9062 398.852 98.9062 398.43 98.6641 398.195L97.5312 397.062C99.0312 395.609 99.9688 393.578 99.9688 391.359C99.9688 387.008 96.3438 383.391 91.9922 383.391C87.6328 383.391 84.0312 387.008 84.0312 391.359C84.0312 393.555 84.9453 395.555 86.4062 397.008L85.2188 398.195C84.9766 398.43 84.9688 398.852 85.2109 399.094ZM87.9062 392.203C87.6016 392.203 87.3672 391.969 87.3672 391.656C87.3672 391.352 87.6016 391.117 87.9062 391.117H91.4531V386.391C91.4531 386.086 91.6875 385.852 91.9922 385.852C92.2969 385.852 92.5391 386.086 92.5391 386.391V391.656C92.5391 391.969 92.2969 392.203 91.9922 392.203H87.9062Z" fill="white"/>
<path id="Remind Me_2" d="M63.1011 416.654H65.1812L66.9917 420H68.228L66.271 416.49C67.3316 416.156 67.9702 415.242 67.9702 414.064C67.9702 412.541 66.9038 411.545 65.2749 411.545H62.0464V420H63.1011V416.654ZM63.1011 412.482H65.1343C66.2241 412.482 66.8804 413.086 66.8804 414.1C66.8804 415.137 66.2652 415.717 65.1812 415.717H63.1011V412.482ZM73.6452 418.365C73.3815 418.922 72.8307 419.221 72.0163 419.221C70.944 419.221 70.2467 418.43 70.194 417.182V417.135H74.735V416.748C74.735 414.785 73.6979 413.572 71.9928 413.572C70.2584 413.572 69.1452 414.861 69.1452 416.848C69.1452 418.846 70.2409 420.111 71.9928 420.111C73.3756 420.111 74.36 419.443 74.653 418.365H73.6452ZM71.9811 414.463C72.983 414.463 73.651 415.201 73.6745 416.32H70.194C70.2702 415.201 70.9733 414.463 71.9811 414.463ZM76.197 420H77.2048V416.086C77.2048 415.195 77.8435 414.48 78.6697 414.48C79.4666 414.48 79.988 414.961 79.988 415.711V420H80.9959V415.939C80.9959 415.137 81.5818 414.48 82.4607 414.48C83.3513 414.48 83.7908 414.938 83.7908 415.869V420H84.7986V415.635C84.7986 414.311 84.0779 413.572 82.7888 413.572C81.9158 413.572 81.1951 414.012 80.8552 414.68H80.7615C80.4685 414.023 79.8709 413.572 79.0154 413.572C78.1716 413.572 77.5388 413.977 77.2517 414.68H77.158V413.684H76.197V420ZM87.0458 412.465C87.4325 412.465 87.7489 412.148 87.7489 411.762C87.7489 411.375 87.4325 411.059 87.0458 411.059C86.6591 411.059 86.3427 411.375 86.3427 411.762C86.3427 412.148 86.6591 412.465 87.0458 412.465ZM86.5419 420H87.5497V413.684H86.5419V420ZM89.3516 420H90.3594V416.262C90.3594 415.154 91.0098 414.48 92.0176 414.48C93.0254 414.48 93.5059 415.02 93.5059 416.156V420H94.5137V415.91C94.5137 414.41 93.7227 413.572 92.3047 413.572C91.3379 413.572 90.7227 413.982 90.4062 414.68H90.3125V413.684H89.3516V420ZM98.5773 420.111C99.4503 420.111 100.2 419.695 100.599 418.992H100.693V420H101.653V411.176H100.646V414.68H100.558C100.2 413.988 99.4562 413.572 98.5773 413.572C96.9718 413.572 95.923 414.861 95.923 416.842C95.923 418.828 96.9601 420.111 98.5773 420.111ZM98.8116 414.48C99.9542 414.48 100.669 415.395 100.669 416.842C100.669 418.301 99.9601 419.203 98.8116 419.203C97.6573 419.203 96.9659 418.318 96.9659 416.842C96.9659 415.371 97.6632 414.48 98.8116 414.48ZM115.218 420V411.545H113.994L111.099 418.6H111.005L108.111 411.545H106.886V420H107.87V413.543H107.941L110.607 420H111.497L114.163 413.543H114.234V420H115.218ZM121.309 418.365C121.045 418.922 120.495 419.221 119.68 419.221C118.608 419.221 117.911 418.43 117.858 417.182V417.135H122.399V416.748C122.399 414.785 121.362 413.572 119.657 413.572C117.922 413.572 116.809 414.861 116.809 416.848C116.809 418.846 117.905 420.111 119.657 420.111C121.04 420.111 122.024 419.443 122.317 418.365H121.309ZM119.645 414.463C120.647 414.463 121.315 415.201 121.338 416.32H117.858C117.934 415.201 118.637 414.463 119.645 414.463Z" fill="white"/>
</g>
<g id="&#240;&#159;&#147;&#158; Accept">
<rect x="248" y="492" width="74" height="74" rx="37" fill="#67CE67"/>
<path id="&#244;&#128;&#140;&#191;" d="M277.117 537.078C282.004 541.965 288.104 545.814 293.131 545.814C295.434 545.814 297.402 545.023 299.02 543.283C299.916 542.334 300.584 541.104 300.584 539.926C300.584 539.082 300.268 538.273 299.406 537.676L294.045 533.896C293.307 533.387 292.656 533.105 292.041 533.105C291.25 533.105 290.512 533.527 289.703 534.318L288.42 535.566C288.227 535.76 287.998 535.83 287.752 535.83C287.506 535.83 287.277 535.742 287.084 535.654C286.047 535.109 284.148 533.615 282.373 531.822C280.58 530.029 279.051 528.166 278.541 527.094C278.453 526.9 278.365 526.672 278.365 526.461C278.365 526.232 278.436 526.021 278.629 525.828L279.877 524.51C280.65 523.666 281.072 522.928 281.072 522.154C281.072 521.521 280.809 520.871 280.281 520.133L276.59 514.912C275.975 514.051 275.113 513.664 274.164 513.664C273.057 513.664 271.861 514.209 270.842 515.211C269.154 516.846 268.416 518.867 268.416 521.1C268.416 526.127 272.213 532.174 277.117 537.078Z" fill="white"/>
<path id="Accept" d="M272.029 588H273.136L270.019 579.545H268.976L265.859 588H266.966L267.816 585.58H271.179L272.029 588ZM269.45 580.91H269.544L270.868 584.684H268.126L269.45 580.91ZM279.244 583.617C279.069 582.492 278.131 581.572 276.596 581.572C274.826 581.572 273.701 582.85 273.701 584.818C273.701 586.828 274.832 588.111 276.602 588.111C278.119 588.111 279.063 587.256 279.244 586.096H278.225C278.037 586.811 277.446 587.203 276.596 587.203C275.471 587.203 274.744 586.277 274.744 584.818C274.744 583.389 275.459 582.48 276.596 582.48C277.504 582.48 278.061 582.99 278.225 583.617H279.244ZM285.839 583.617C285.664 582.492 284.726 581.572 283.191 581.572C281.421 581.572 280.296 582.85 280.296 584.818C280.296 586.828 281.427 588.111 283.197 588.111C284.714 588.111 285.658 587.256 285.839 586.096H284.82C284.632 586.811 284.04 587.203 283.191 587.203C282.066 587.203 281.339 586.277 281.339 584.818C281.339 583.389 282.054 582.48 283.191 582.48C284.099 582.48 284.656 582.99 284.82 583.617H285.839ZM291.391 586.365C291.127 586.922 290.577 587.221 289.762 587.221C288.69 587.221 287.993 586.43 287.94 585.182V585.135H292.481V584.748C292.481 582.785 291.444 581.572 289.739 581.572C288.004 581.572 286.891 582.861 286.891 584.848C286.891 586.846 287.987 588.111 289.739 588.111C291.122 588.111 292.106 587.443 292.399 586.365H291.391ZM289.727 582.463C290.729 582.463 291.397 583.201 291.42 584.32H287.94C288.016 583.201 288.719 582.463 289.727 582.463ZM297.019 581.572C296.158 581.572 295.402 582.012 294.998 582.738H294.904V581.684H293.943V590.109H294.951V587.051H295.045C295.39 587.719 296.117 588.111 297.019 588.111C298.625 588.111 299.674 586.816 299.674 584.842C299.674 582.855 298.631 581.572 297.019 581.572ZM296.779 587.203C295.642 587.203 294.922 586.289 294.922 584.842C294.922 583.389 295.642 582.48 296.785 582.48C297.939 582.48 298.631 583.365 298.631 584.842C298.631 586.318 297.939 587.203 296.779 587.203ZM301.557 580.049V581.684H300.538V582.527H301.557V586.359C301.557 587.566 302.079 588.047 303.38 588.047C303.579 588.047 303.772 588.023 303.971 587.988V587.139C303.784 587.156 303.684 587.162 303.503 587.162C302.846 587.162 302.565 586.846 302.565 586.102V582.527H303.971V581.684H302.565V580.049H301.557Z" fill="white"/>
</g>
<g id="&#240;&#159;&#147;&#158; Decline">
<rect x="55" y="492" width="74" height="74" rx="37" fill="#EB5545"/>
<path id="&#244;&#128;&#141;&#135;" d="M91.5 521.855C84.1348 521.873 77.1035 523.455 73.5352 527.023C71.918 528.641 71.0918 530.592 71.1621 532.947C71.2148 534.266 71.584 535.602 72.4277 536.445C73.0078 537.043 73.834 537.377 74.8535 537.201L81.3398 536.094C82.2012 535.936 82.8516 535.654 83.3086 535.215C83.8711 534.688 84.082 533.844 84.082 532.701L84.1172 530.926C84.1172 530.645 84.2227 530.434 84.3984 530.258C84.5566 530.064 84.8027 529.977 84.9961 529.924C86.1211 529.625 88.5293 529.309 91.5 529.309C94.4707 529.309 96.8613 529.555 98.0039 529.941C98.1973 529.994 98.4082 530.1 98.5664 530.258C98.7422 530.416 98.8301 530.609 98.8301 530.873L98.8828 532.701C98.918 533.844 99.1465 534.67 99.6914 535.215C100.148 535.672 100.799 535.936 101.678 536.094L107.971 537.166C109.043 537.359 109.922 536.99 110.59 536.34C111.363 535.549 111.82 534.318 111.838 532.877C111.873 530.521 110.977 528.588 109.395 527.023C105.826 523.455 98.8652 521.838 91.5 521.855Z" fill="white"/>
<path id="Decline" d="M71.3737 579.545V588H74.2741C76.7877 588 78.2643 586.436 78.2643 583.77C78.2643 581.109 76.7819 579.545 74.2741 579.545H71.3737ZM72.4284 580.494H74.2038C76.0788 580.494 77.1862 581.713 77.1862 583.781C77.1862 585.844 76.0905 587.051 74.2038 587.051H72.4284V580.494ZM84.0271 586.365C83.7634 586.922 83.2127 587.221 82.3982 587.221C81.3259 587.221 80.6287 586.43 80.5759 585.182V585.135H85.117V584.748C85.117 582.785 84.0798 581.572 82.3748 581.572C80.6404 581.572 79.5271 582.861 79.5271 584.848C79.5271 586.846 80.6228 588.111 82.3748 588.111C83.7576 588.111 84.742 587.443 85.0349 586.365H84.0271ZM82.363 582.463C83.365 582.463 84.033 583.201 84.0564 584.32H80.5759C80.6521 583.201 81.3552 582.463 82.363 582.463ZM91.8055 583.617C91.6298 582.492 90.6923 581.572 89.1571 581.572C87.3876 581.572 86.2626 582.85 86.2626 584.818C86.2626 586.828 87.3934 588.111 89.163 588.111C90.6805 588.111 91.6239 587.256 91.8055 586.096H90.786C90.5985 586.811 90.0067 587.203 89.1571 587.203C88.0321 587.203 87.3055 586.277 87.3055 584.818C87.3055 583.389 88.0204 582.48 89.1571 582.48C90.0653 582.48 90.622 582.99 90.786 583.617H91.8055ZM93.2324 588H94.2402V579.176H93.2324V588ZM96.6046 580.465C96.9913 580.465 97.3077 580.148 97.3077 579.762C97.3077 579.375 96.9913 579.059 96.6046 579.059C96.2179 579.059 95.9015 579.375 95.9015 579.762C95.9015 580.148 96.2179 580.465 96.6046 580.465ZM96.1007 588H97.1085V581.684H96.1007V588ZM98.9104 588H99.9182V584.262C99.9182 583.154 100.569 582.48 101.576 582.48C102.584 582.48 103.065 583.02 103.065 584.156V588H104.073V583.91C104.073 582.41 103.281 581.572 101.864 581.572C100.897 581.572 100.281 581.982 99.9651 582.68H99.8713V581.684H98.9104V588ZM109.982 586.365C109.718 586.922 109.167 587.221 108.353 587.221C107.281 587.221 106.583 586.43 106.531 585.182V585.135H111.072V584.748C111.072 582.785 110.035 581.572 108.329 581.572C106.595 581.572 105.482 582.861 105.482 584.848C105.482 586.846 106.577 588.111 108.329 588.111C109.712 588.111 110.697 587.443 110.99 586.365H109.982ZM108.318 582.463C109.32 582.463 109.988 583.201 110.011 584.32H106.531C106.607 583.201 107.31 582.463 108.318 582.463Z" fill="white"/>
</g>
</g>
<defs>
<radialGradient id="paint0_radial_102_1406" cx="0" cy="0" r="1" gradientUnits="userSpaceOnUse" gradientTransform="translate(-147 -253.204) rotate(60.5948) scale(1063.17 2725.86)">
<stop stop-color="#6F7A82"/>
<stop offset="0.246492" stop-color="#5D727E"/>
<stop offset="0.636421" stop-color="#112B4A"/>
<stop offset="0.873505" stop-color="#0D2445"/>
</radialGradient>
</defs>
</svg>
